<svg xmlns="http://www.w3.org/2000/svg" xmlns:xlink="http://www.w3.org/1999/xlink" width="180" zoomAndPan="magnify" viewBox="0 0 135 36.000001" height="48" preserveAspectRatio="xMidYMid meet" version="1.0"><defs><g/><clipPath id="1a90d4a93e"><path d="M 1.824219 0 L 133.175781 0 L 133.175781 35.027344 L 1.824219 35.027344 Z M 1.824219 0 " clip-rule="nonzero"/></clipPath><clipPath id="160d1e69d1"><path d="M 9 7.832031 L 17 7.832031 L 17 15 L 9 15 Z M 9 7.832031 " clip-rule="nonzero"/></clipPath><clipPath id="3398194c05"><path d="M 23 12 L 27.363281 12 L 27.363281 18 L 23 18 Z M 23 12 " clip-rule="nonzero"/></clipPath><clipPath id="139edc542e"><path d="M 12 25 L 14 25 L 14 27.535156 L 12 27.535156 Z M 12 25 " clip-rule="nonzero"/></clipPath><clipPath id="aa1762c667"><path d="M 6.933594 14 L 18 14 L 18 25 L 6.933594 25 Z M 6.933594 14 " clip-rule="nonzero"/></clipPath><clipPath id="4b8499ea81"><path d="M 23 1 L 133.175781 1 L 133.175781 33 L 23 33 Z M 23 1 " clip-rule="nonzero"/></clipPath></defs><g clip-path="url(#1a90d4a93e)"><path fill="#ffffff" d="M 1.824219 0 L 133.175781 0 L 133.175781 35.027344 L 1.824219 35.027344 Z M 1.824219 0 " fill-opacity="1" fill-rule="nonzero"/><path fill="#ffffff" d="M 1.824219 0 L 133.175781 0 L 133.175781 35.027344 L 1.824219 35.027344 Z M 1.824219 0 " fill-opacity="1" fill-rule="nonzero"/></g><path fill="#858afa" d="M 15.867188 15.257812 C 16.3125 15.492188 17.132812 15.289062 17.671875 15.433594 C 17.898438 15.914062 17.835938 16.703125 17.832031 17.300781 C 17.824219 19.25 17.511719 19 21.078125 19 C 21.988281 19 22.144531 18.679688 22.136719 17.773438 C 22.105469 14.722656 22.394531 14.765625 20.605469 14.761719 C 19.875 14.757812 19.035156 14.847656 18.363281 14.648438 C 18.246094 14.101562 18.394531 13.433594 18.238281 12.972656 C 17.949219 12.867188 16.277344 12.828125 16.007812 13 C 15.691406 13.203125 15.648438 14.902344 15.867188 15.257812 Z M 15.867188 15.257812 " fill-opacity="1" fill-rule="evenodd"/><g clip-path="url(#160d1e69d1)"><path fill="#858afa" d="M 12.332031 13.324219 C 12.398438 14.027344 12.191406 14.496094 12.449219 14.730469 C 12.75 14.980469 14.046875 14.867188 14.410156 14.664062 C 14.65625 14.3125 14.769531 12.894531 14.527344 12.644531 C 14.320312 12.402344 13.960938 12.542969 13.53125 12.503906 C 13.460938 12.019531 13.59375 10.503906 13.8125 10.125 C 14.378906 9.128906 16.332031 10.804688 16.039062 7.84375 C 15.488281 7.8125 14.890625 7.929688 14.378906 8.039062 C 13.542969 8.214844 13.785156 8.359375 13.589844 9.082031 C 13.414062 9.726562 12.324219 9.609375 11.011719 10.070312 C 10.144531 10.375 10.140625 11.546875 9.894531 12.523438 C 9.503906 14.085938 10.53125 13.183594 12.332031 13.324219 Z M 12.332031 13.324219 " fill-opacity="1" fill-rule="evenodd"/></g><g clip-path="url(#3398194c05)"><path fill="#6364ff" d="M 24.59375 15.273438 C 24.339844 15.511719 23.734375 15.269531 23.28125 15.449219 C 23.140625 15.796875 23.078125 16.980469 23.367188 17.273438 C 23.660156 17.523438 24.65625 17.453125 25.101562 17.367188 C 25.261719 16.890625 25.144531 16.527344 25.183594 16.023438 C 25.75 15.761719 27.507812 16.28125 27.660156 15.691406 C 27.777344 15.222656 27.582031 13.410156 27.34375 13.203125 C 27.125 13.011719 25.359375 12.699219 24.972656 12.824219 C 24.550781 12.960938 24.699219 13.542969 24.730469 14.003906 C 24.769531 14.621094 24.882812 15.046875 24.59375 15.273438 Z M 24.59375 15.273438 " fill-opacity="1" fill-rule="evenodd"/></g><path fill="#6364ff" d="M 19.570312 8.335938 C 19.277344 8.164062 18.753906 8.226562 18.34375 8.230469 C 17.847656 8.238281 17.390625 8.15625 17.152344 8.488281 C 16.839844 8.914062 17.265625 9.746094 16.648438 9.972656 L 15.898438 10.078125 C 15.433594 10.101562 15.171875 10.046875 14.976562 10.375 C 14.800781 10.605469 14.699219 11.792969 14.859375 12.109375 C 15.199219 12.292969 16.65625 12.214844 17.035156 12.027344 C 17.292969 11.660156 17.191406 10.863281 17.3125 10.410156 C 17.742188 10.242188 17.902344 10.246094 18.492188 10.265625 C 18.738281 10.289062 18.917969 10.320312 19.101562 10.414062 C 19.496094 11.894531 18.664062 13.632812 19.808594 13.839844 C 20.417969 13.949219 23.421875 14.03125 23.6875 13.699219 C 23.945312 13.375 23.878906 10.460938 23.425781 10.058594 C 23.085938 9.761719 21.207031 9.777344 20.601562 9.761719 C 19.304688 9.722656 19.816406 9.40625 19.683594 8.636719 L 19.605469 8.40625 C 19.601562 8.386719 19.585938 8.359375 19.570312 8.335938 Z M 19.570312 8.335938 " fill-opacity="1" fill-rule="evenodd"/><g clip-path="url(#139edc542e)"><path fill="#6364ff" d="M 12.199219 26.929688 C 12.558594 27.09375 13.398438 27.246094 13.890625 27.160156 C 13.949219 26.753906 13.839844 25.816406 13.738281 25.484375 C 13.34375 25.351562 12.542969 25.277344 12.039062 25.316406 C 11.957031 25.785156 12.09375 26.492188 12.199219 26.929688 Z M 12.199219 26.929688 " fill-opacity="1" fill-rule="evenodd"/></g><path fill="#6364ff" d="M 25.773438 11.84375 L 25.640625 10.605469 C 25.253906 10.398438 24.648438 10.382812 24.179688 10.417969 C 24.117188 11.792969 24.308594 11.992188 25.773438 11.84375 Z M 25.773438 11.84375 " fill-opacity="1" fill-rule="evenodd"/><g clip-path="url(#aa1762c667)"><path fill="#6364ff" d="M 9.128906 18.335938 C 9.378906 18.796875 9.070312 19.628906 9.304688 20.132812 C 9.628906 20.363281 10.984375 20.429688 11.222656 20.160156 C 11.578125 19.835938 11.296875 18.585938 11.496094 18.097656 C 11.855469 18.074219 12.347656 18.003906 12.554688 18.203125 C 12.769531 18.449219 12.761719 21.117188 12.53125 21.445312 C 11.929688 22.023438 10.714844 20.902344 10.699219 22.191406 C 10.695312 22.550781 10.769531 23.78125 10.890625 24.007812 C 11.101562 24.410156 12.671875 24.492188 13.078125 24.289062 C 13.09375 24.265625 13.113281 24.207031 13.117188 24.21875 L 13.191406 23.328125 C 13.101562 21.78125 13.308594 22.390625 16.371094 22.367188 C 17.597656 22.359375 17.316406 21.542969 17.308594 19.9375 C 17.300781 18.890625 17.570312 17.617188 16.460938 17.5 C 15.589844 17.410156 13.886719 17.773438 13.238281 17.410156 C 12.941406 16.902344 13.378906 16.09375 13.039062 15.734375 C 12.792969 15.492188 11.28125 15.667969 11.125 15.828125 C 10.75 16.363281 11.230469 17.152344 10.726562 17.503906 C 10.457031 17.640625 10.035156 17.65625 9.773438 17.496094 L 9.640625 17.203125 C 9.53125 16.6875 9.832031 14.898438 9.789062 14.566406 C 9.710938 13.960938 9.148438 14.222656 8.691406 14.335938 C 7.070312 14.742188 7.304688 14.53125 6.980469 17.339844 C 6.898438 18.074219 6.832031 18.304688 7.597656 18.285156 C 8.082031 18.273438 8.722656 18.140625 9.128906 18.335938 Z M 9.128906 18.335938 " fill-opacity="1" fill-rule="evenodd"/></g><g clip-path="url(#4b8499ea81)"><path stroke-linecap="butt" transform="matrix(0.72973, 0, 0, 0.72973, 30.332625, 3.283786)" fill="none" stroke-linejoin="miter" d="M 9.816606 11.885559 L 9.586426 11.714263 L 8.162526 11.687498 C 7.257867 11.687498 6.727919 11.70891 6.572682 11.746381 C 6.417445 11.783852 6.278266 11.874853 6.139088 12.019384 C 6.010616 12.158562 5.908909 12.297741 5.833967 12.431566 C 5.833967 12.469037 5.812555 12.731334 5.759025 13.229164 C 5.710847 13.721641 5.657317 14.331884 5.598434 15.065246 C 5.544904 15.787903 5.486021 16.580148 5.432491 17.425924 C 5.378961 18.266346 5.320078 19.058591 5.266548 19.80266 C 5.170194 21.28009 5.089898 22.409575 5.036368 23.185762 C 4.982838 23.961948 4.961426 24.400895 4.982838 24.497249 C 4.998897 24.780958 5.1809 25.000432 5.518139 25.150316 C 5.668023 25.225258 6.203324 25.262729 7.113336 25.262729 C 8.023347 25.262729 8.553295 25.225258 8.70318 25.150316 C 8.842358 25.075374 8.986889 24.957608 9.152832 24.813076 C 9.313423 24.657839 9.409777 24.513308 9.447248 24.379483 C 9.484719 24.267069 9.607838 22.736109 9.816606 19.775895 L 10.303729 12.629627 L 10.185963 12.345918 C 10.094962 12.13715 9.971843 11.987266 9.816606 11.885559 Z M 6.545917 9.155524 C 6.65833 9.139465 7.26322 9.139465 8.36594 9.155524 C 8.820946 9.155524 9.184951 9.160877 9.46866 9.171583 C 9.757723 9.182289 9.96649 9.192995 10.100315 9.214407 C 10.480379 9.251878 10.83903 9.374998 11.165564 9.594471 C 11.497451 9.813944 11.791866 10.076242 12.048811 10.392069 C 12.305755 10.707897 12.503816 11.055842 12.642995 11.435906 C 12.787526 11.810617 12.862468 12.19068 12.862468 12.570744 C 12.862468 12.683157 12.841056 13.015044 12.803585 13.555698 C 12.766114 14.090999 12.72329 14.73336 12.675113 15.472075 C 12.626936 16.216143 12.573405 16.986977 12.519875 17.795281 C 12.466345 18.598233 12.407462 19.331595 12.348579 19.995368 L 12.005986 24.780958 L 11.813278 25.235964 C 11.679453 25.541086 11.508157 25.840854 11.299389 26.140623 C 11.090622 26.429685 10.844383 26.691983 10.566027 26.932868 C 10.293023 27.168401 9.993255 27.366462 9.672074 27.527052 C 9.350894 27.687642 9.019007 27.778644 8.676415 27.800056 C 8.52653 27.816115 8.307057 27.832174 8.017994 27.84288 C 7.734285 27.848233 7.375633 27.853586 6.94204 27.853586 C 6.433504 27.853586 5.941027 27.832174 5.475315 27.794703 C 5.009603 27.757232 4.592069 27.655524 4.212005 27.494934 C 3.831941 27.334344 3.494702 27.088105 3.194933 26.745513 C 2.905871 26.397567 2.670338 25.926502 2.499042 25.316259 L 2.359864 24.893372 L 3.269875 12.088973 L 3.441172 11.660733 C 3.724881 11.013018 4.13171 10.467011 4.661658 10.012006 C 5.196959 9.551647 5.823261 9.267937 6.545917 9.155524 Z M 22.535356 11.778499 C 22.385472 11.735675 21.823406 11.714263 20.854511 11.714263 L 19.344962 11.714263 L 19.403845 11.832029 C 19.403845 11.848088 19.398492 12.008678 19.387786 12.303094 C 19.37708 12.597509 19.361021 12.945455 19.334256 13.352283 C 19.307491 13.759112 19.275373 14.176647 19.237902 14.604888 C 19.200431 15.033128 19.168313 15.397133 19.146901 15.702255 L 19.034488 17.495513 L 20.544036 17.495513 C 20.961571 17.495513 21.293458 17.49016 21.550402 17.479454 C 21.807347 17.474101 21.983996 17.458042 22.08035 17.43663 C 22.305176 17.404512 22.503238 17.297451 22.674534 17.126155 C 22.867242 16.976271 22.990362 16.794268 23.043892 16.585501 C 23.102775 16.376734 23.145599 16.007376 23.161658 15.472075 C 23.161658 15.322191 23.172364 15.081305 23.188423 14.765478 C 23.209835 14.438944 23.220541 14.107058 23.231247 13.769818 C 23.241953 13.427226 23.247306 13.122104 23.247306 12.859807 C 23.247306 12.592156 23.2366 12.436919 23.215188 12.399448 C 23.043892 12.078267 22.819065 11.8695 22.535356 11.778499 Z M 17.781884 9.241172 C 17.937121 9.182289 18.809661 9.155524 20.404858 9.155524 C 21.063278 9.155524 21.609285 9.160877 22.037526 9.171583 C 22.460414 9.182289 22.760182 9.192995 22.931478 9.214407 C 23.311542 9.230466 23.664841 9.332173 23.996727 9.508823 C 24.328614 9.690825 24.623029 9.921004 24.879974 10.199361 C 25.136918 10.472364 25.351039 10.782839 25.522335 11.136138 C 25.693631 11.484083 25.811398 11.837382 25.864928 12.201386 C 25.880987 12.276329 25.88634 12.463684 25.880987 12.768805 C 25.870281 13.073927 25.854222 13.421873 25.838163 13.812642 C 25.816751 14.198059 25.795338 14.57277 25.768573 14.942127 C 25.741808 15.316838 25.715043 15.6059 25.693631 15.814668 C 25.65616 16.232202 25.607983 16.580148 25.554453 16.853152 C 25.49557 17.131508 25.452746 17.334922 25.415275 17.468748 C 25.035211 18.335935 24.398203 19.031826 23.50425 19.545715 C 23.177717 19.6956 23.017127 19.791954 23.017127 19.829425 C 23.017127 19.845484 23.086716 20.12384 23.231247 20.653788 C 23.375778 21.183736 23.611311 21.992041 23.932491 23.073348 C 24.162671 23.98336 24.344673 24.69531 24.483851 25.219905 C 24.623029 25.7445 24.714031 26.103152 24.751502 26.290507 C 24.815738 26.649159 24.778267 26.948927 24.644441 27.200519 C 24.360732 27.692995 23.911079 27.917822 23.300836 27.880351 C 23.134893 27.864292 22.958244 27.805409 22.781594 27.709054 C 22.599592 27.618053 22.460414 27.494934 22.364059 27.339697 C 22.326588 27.248696 22.230234 26.895397 22.08035 26.279801 C 21.930466 25.658852 21.694933 24.770252 21.3684 23.614002 L 20.404858 20.086369 L 18.831073 20.022133 L 18.32789 26.916809 L 18.178006 27.173754 C 17.89965 27.682289 17.444644 27.917822 16.818342 27.880351 C 16.550691 27.84288 16.309806 27.751879 16.101039 27.596641 C 15.892271 27.446757 15.769152 27.227284 15.731681 26.943574 C 15.715622 26.831161 15.876212 24.363424 16.218805 19.545715 C 16.293747 18.351994 16.368689 17.195744 16.443631 16.093024 C 16.523926 14.979598 16.593515 13.994645 16.657752 13.13281 C 16.721988 12.265623 16.780871 11.564378 16.823695 11.03443 C 16.877225 10.499129 16.909343 10.204714 16.930755 10.151184 C 16.968226 9.979888 17.080639 9.797885 17.267995 9.61053 C 17.460703 9.417822 17.631999 9.294702 17.781884 9.241172 Z M 34.997162 11.832029 C 34.922219 11.794558 34.761629 11.767793 34.510038 11.746381 C 34.263799 11.724969 33.889089 11.714263 33.3752 11.714263 L 31.838886 11.687498 L 31.581942 15.274014 C 31.523058 15.857492 31.469528 16.483794 31.426704 17.142214 C 31.378527 17.795281 31.335703 18.437642 31.298232 19.07465 C 31.260761 19.706306 31.22329 20.327255 31.180466 20.926792 C 31.142995 21.526329 31.105524 22.06163 31.068053 22.532694 L 30.869991 25.348377 L 32.374187 25.316259 C 33.407318 25.316259 34.001502 25.273435 34.167445 25.177081 C 34.547509 24.989726 34.863336 24.69531 35.114928 24.299188 L 35.280871 23.98336 L 35.650229 18.432289 L 35.907173 12.881219 L 35.79476 12.656392 C 35.623464 12.276329 35.355813 12.003325 34.997162 11.832029 Z M 32.888076 9.155524 C 33.594673 9.176936 34.124621 9.187642 34.483273 9.198348 C 34.841924 9.209054 35.098869 9.21976 35.254106 9.241172 C 35.40399 9.257231 35.569934 9.305408 35.74123 9.369645 C 35.912526 9.439234 36.110587 9.514176 36.335414 9.61053 C 36.84395 9.87818 37.28825 10.263597 37.657607 10.76678 C 38.026965 11.269963 38.273203 11.832029 38.385616 12.458331 C 38.423087 12.592156 38.439147 13.191693 38.428441 14.251589 C 38.417734 15.311485 38.348145 16.724679 38.21432 18.485819 C 38.117966 19.968603 38.037671 21.205148 37.968082 22.190102 C 37.903846 23.180409 37.855669 23.785299 37.818197 24.010125 C 37.721843 24.486543 37.539841 24.952255 37.277543 25.40726 C 36.801126 26.333331 36.089175 27.018516 35.141693 27.457463 C 34.932925 27.553817 34.740217 27.623406 34.558215 27.682289 C 34.376212 27.741173 34.210269 27.778644 34.060385 27.800056 C 33.755263 27.837527 32.9309 27.864292 31.581942 27.880351 C 29.992098 27.917822 29.108851 27.891057 28.937555 27.800056 C 28.691317 27.719761 28.503961 27.521699 28.364783 27.200519 C 28.332665 27.104164 28.354077 26.311919 28.434372 24.823782 C 28.525373 23.335646 28.664551 21.258678 28.851907 18.608939 C 29.039262 15.927081 29.189146 13.84476 29.306913 12.361977 C 29.419326 10.868487 29.488915 10.086948 29.504974 10.012006 C 29.563857 9.87818 29.665564 9.733649 29.820801 9.578412 C 29.895744 9.508823 29.965333 9.439234 30.040275 9.385704 C 30.12057 9.32682 30.195512 9.278643 30.270454 9.241172 C 30.40428 9.16623 31.27682 9.139465 32.888076 9.155524 Z M 48.743689 11.885559 L 48.51351 11.714263 L 47.08961 11.687498 C 46.179598 11.687498 45.64965 11.70891 45.494413 11.746381 C 45.344529 11.783852 45.199997 11.874853 45.066172 12.019384 C 44.9377 12.158562 44.835993 12.297741 44.761051 12.431566 C 44.761051 12.469037 44.734286 12.731334 44.686108 13.229164 C 44.637931 13.721641 44.584401 14.331884 44.525518 15.065246 C 44.466635 15.787903 44.413105 16.580148 44.354222 17.425924 C 44.300692 18.266346 44.247162 19.058591 44.188279 19.80266 C 44.091924 21.28009 44.016982 22.409575 43.963452 23.185762 C 43.904569 23.961948 43.88851 24.400895 43.904569 24.497249 C 43.925981 24.780958 44.10263 25.000432 44.43987 25.150316 C 44.595107 25.225258 45.125055 25.262729 46.04042 25.262729 C 46.945078 25.262729 47.475026 25.225258 47.630264 25.150316 C 47.764089 25.075374 47.913973 24.957608 48.074563 24.813076 C 48.235154 24.657839 48.336861 24.513308 48.374332 24.379483 C 48.411803 24.267069 48.534922 22.736109 48.743689 19.775895 L 49.22546 12.629627 L 49.107694 12.345918 C 49.016693 12.13715 48.893574 11.987266 48.743689 11.885559 Z M 45.467648 9.155524 C 45.580061 9.139465 46.184951 9.139465 47.287671 9.155524 C 47.742677 9.155524 48.112034 9.160877 48.395744 9.171583 C 48.679453 9.182289 48.893574 9.192995 49.027399 9.214407 C 49.407463 9.251878 49.760761 9.374998 50.087295 9.594471 C 50.424534 9.813944 50.71895 10.076242 50.970541 10.392069 C 51.232839 10.707897 51.4309 11.055842 51.570078 11.435906 C 51.71461 11.810617 51.784199 12.19068 51.784199 12.570744 C 51.784199 12.683157 51.76814 13.015044 51.730669 13.555698 C 51.693198 14.090999 51.650374 14.73336 51.596843 15.472075 C 51.548666 16.216143 51.500489 16.986977 51.441606 17.795281 C 51.388076 18.598233 51.329193 19.331595 51.27031 19.995368 L 50.927717 24.780958 L 50.735009 25.235964 C 50.601184 25.541086 50.429887 25.840854 50.22112 26.140623 C 50.012353 26.429685 49.771467 26.691983 49.493111 26.932868 C 49.220107 27.168401 48.920339 27.366462 48.593805 27.527052 C 48.277978 27.687642 47.946091 27.778644 47.603499 27.800056 C 47.448261 27.816115 47.228788 27.832174 46.939725 27.84288 C 46.661369 27.848233 46.302717 27.853586 45.86377 27.853586 C 45.355235 27.853586 44.868111 27.832174 44.397046 27.794703 C 43.936687 27.757232 43.513799 27.655524 43.133736 27.494934 C 42.753672 27.334344 42.416432 27.088105 42.122017 26.745513 C 41.827601 26.397567 41.597422 25.926502 41.426126 25.316259 L 41.286947 24.893372 L 42.196959 12.088973 L 42.362902 11.660733 C 42.651965 11.013018 43.058794 10.467011 43.583388 10.012006 C 44.118689 9.551647 44.744992 9.267937 45.467648 9.155524 Z M 65.953615 9.214407 C 66.044616 9.176936 66.269442 9.155524 66.622741 9.155524 C 66.970686 9.155524 67.452457 9.155524 68.057347 9.155524 C 68.646178 9.176936 69.106537 9.182289 69.433071 9.182289 C 69.77031 9.182289 69.963018 9.192995 70.027255 9.214407 C 70.198551 9.230466 70.380553 9.32682 70.567909 9.498117 C 70.621439 9.535588 70.680322 9.637295 70.733852 9.808591 C 70.792735 9.979888 70.798088 10.188655 70.760617 10.434893 C 70.723146 10.65972 70.669616 10.87384 70.600027 11.077254 C 70.53579 11.275316 70.412671 11.441259 70.219963 11.575084 L 69.936253 11.687498 L 66.039263 11.746381 L 65.7502 11.885559 C 65.279135 12.131797 64.963308 12.442272 64.802717 12.81163 C 64.636774 13.180987 64.54042 13.614581 64.502949 14.112411 C 64.481537 14.620947 64.519008 15.027775 64.615362 15.332897 C 64.690304 15.504193 64.770599 15.65943 64.856248 15.793256 C 64.941896 15.921728 65.059662 16.044847 65.19884 16.162613 C 65.338018 16.269674 65.520021 16.382087 65.739494 16.489147 C 65.958968 16.590854 66.237324 16.697914 66.579917 16.81568 C 67.473869 17.131508 68.244702 17.607926 68.887064 18.239581 C 69.529425 18.865883 69.936253 19.668834 70.10755 20.653788 C 70.166433 20.937498 70.166433 21.515623 70.10755 22.388163 C 70.091491 22.805698 70.064726 23.16435 70.027255 23.464118 C 69.989784 23.753181 69.946959 23.972654 69.909488 24.122538 C 69.604367 25.091433 69.085125 25.915796 68.34641 26.606335 C 67.602341 27.286167 66.719095 27.703701 65.69667 27.853586 C 65.605669 27.874998 65.407608 27.880351 65.113192 27.880351 C 64.82413 27.880351 64.428007 27.880351 63.930177 27.880351 C 62.870281 27.917822 62.206508 27.917822 61.938857 27.880351 C 61.810385 27.864292 61.692619 27.84288 61.585559 27.810762 C 61.483852 27.783997 61.382145 27.725114 61.28579 27.623406 C 60.948551 27.280814 60.820079 26.873985 60.900374 26.40292 C 60.986022 25.931855 61.248319 25.557145 61.687266 25.289494 L 61.970976 25.123551 L 63.673233 25.123551 C 64.262064 25.123551 64.717069 25.118198 65.043603 25.107492 C 65.370136 25.102139 65.578904 25.08608 65.669905 25.059315 C 66.40862 24.893372 66.970686 24.470484 67.35075 23.785299 C 67.388221 23.688944 67.414986 23.614002 67.436398 23.560472 C 67.452457 23.501589 67.473869 23.426647 67.489928 23.346352 C 67.505987 23.255351 67.522046 23.137585 67.532752 22.993053 C 67.538105 22.837816 67.554164 22.634402 67.575576 22.388163 C 67.596988 22.029512 67.607694 21.719037 67.607694 21.45674 C 67.607694 21.189089 67.586282 20.996381 67.543458 20.878615 C 67.398927 20.46108 67.141983 20.150605 66.783331 19.941838 C 66.681624 19.882955 66.53174 19.818719 66.322972 19.743777 C 66.114205 19.668834 65.851907 19.561774 65.530727 19.427949 C 65.150663 19.278065 64.840189 19.149593 64.599303 19.037179 C 64.363771 18.919413 64.171062 18.812353 64.015825 18.715999 C 63.865941 18.641057 63.716057 18.550056 63.566172 18.437642 C 63.410935 18.325229 63.255698 18.169992 63.105814 17.982637 C 62.634749 17.468748 62.297509 16.917388 62.099448 16.328557 C 61.901386 15.739726 61.815738 15.075952 61.853209 14.331884 C 61.89068 13.764465 62.0138 13.197046 62.222567 12.629627 C 62.431334 12.062208 62.709691 11.537613 63.062989 11.066548 C 63.416288 10.590131 63.839176 10.194008 64.3263 9.872827 C 64.82413 9.546294 65.364783 9.32682 65.953615 9.214407 Z M 74.973435 9.214407 C 75.048377 9.192995 75.369558 9.182289 75.94233 9.171583 C 76.509749 9.160877 77.41976 9.155524 78.672365 9.155524 C 80.872452 9.155524 82.066173 9.176936 82.258881 9.214407 C 82.408765 9.267937 82.547943 9.364292 82.66571 9.498117 C 82.794182 9.631942 82.87983 9.787179 82.938713 9.958476 C 82.997596 10.124419 83.019008 10.301068 83.002949 10.488423 C 82.981537 10.681132 82.922654 10.863134 82.8263 11.03443 C 82.77277 11.146844 82.660357 11.275316 82.499766 11.409141 C 82.339176 11.537613 82.194645 11.612555 82.06082 11.628614 C 81.873464 11.666086 80.920629 11.687498 79.213019 11.687498 L 76.456219 11.687498 L 76.252804 14.422885 C 76.140391 16.167966 76.108273 17.035154 76.172509 17.035154 C 76.151097 17.035154 76.215333 17.035154 76.365218 17.035154 C 76.520455 17.035154 76.723869 17.040507 76.99152 17.051213 C 77.25917 17.061919 77.558939 17.061919 77.885472 17.061919 C 78.222712 17.061919 78.549245 17.061919 78.875779 17.061919 C 79.630553 17.061919 80.171207 17.072625 80.492388 17.083331 C 80.818921 17.094037 81.043748 17.110096 81.177573 17.126155 C 81.38634 17.147567 81.595108 17.276039 81.803875 17.522278 C 82.071526 17.805987 82.151821 18.14858 82.055467 18.550056 C 81.964465 18.951531 81.744992 19.2513 81.402399 19.460067 L 81.150808 19.62601 L 78.6456 19.62601 L 75.883447 19.658128 L 75.481971 25.316259 L 78.559951 25.316259 C 79.582376 25.316259 80.363916 25.321612 80.90457 25.332318 C 81.445224 25.343024 81.755698 25.359083 81.83064 25.380495 C 82.06082 25.455438 82.253528 25.616028 82.419471 25.862266 C 82.580061 26.108505 82.649651 26.365449 82.633592 26.6331 C 82.606827 27.120223 82.349882 27.500287 81.862758 27.773291 C 81.766404 27.810762 80.40674 27.84288 77.789118 27.880351 C 76.499043 27.880351 75.519442 27.880351 74.844963 27.869645 C 74.170484 27.858939 73.785067 27.84288 73.688713 27.826821 C 73.544182 27.78935 73.388944 27.687642 73.223001 27.516346 C 73.062411 27.34505 72.960704 27.179107 72.923233 27.029222 C 72.923233 26.820455 72.939292 26.418979 72.966057 25.830148 C 72.992822 25.24667 73.035646 24.540073 73.094529 23.726416 C 73.153412 22.912758 73.217648 22.013453 73.281884 21.023146 C 73.34612 20.038192 73.410357 19.047885 73.474593 18.052226 C 73.544182 17.056566 73.613771 16.087671 73.688713 15.145542 C 73.769008 14.203412 73.833244 13.368342 73.892127 12.629627 C 73.945657 11.890912 73.999188 11.280669 74.042012 10.809604 C 74.095542 10.333186 74.12766 10.065536 74.149072 10.012006 C 74.202602 9.87818 74.320368 9.71759 74.50237 9.540941 C 74.684373 9.358938 74.83961 9.251878 74.973435 9.214407 Z M 92.049535 11.778499 C 91.894298 11.735675 91.332232 11.714263 90.363337 11.714263 L 88.859141 11.714263 L 88.912672 11.832029 C 88.912672 11.848088 88.907319 12.008678 88.901966 12.303094 C 88.891259 12.597509 88.869847 12.945455 88.843082 13.352283 C 88.816317 13.759112 88.784199 14.176647 88.746728 14.604888 C 88.709257 15.033128 88.682492 15.397133 88.655727 15.702255 L 88.543314 17.495513 L 90.052863 17.495513 C 90.470397 17.495513 90.807637 17.49016 91.059228 17.479454 C 91.321526 17.474101 91.498175 17.458042 91.589176 17.43663 C 91.814003 17.404512 92.017417 17.297451 92.188713 17.126155 C 92.376069 16.976271 92.499188 16.794268 92.552718 16.585501 C 92.616954 16.376734 92.654425 16.007376 92.670484 15.472075 C 92.670484 15.322191 92.68119 15.081305 92.702602 14.765478 C 92.718661 14.438944 92.73472 14.107058 92.740073 13.769818 C 92.750779 13.427226 92.756132 13.122104 92.756132 12.859807 C 92.756132 12.592156 92.745426 12.436919 92.729367 12.399448 C 92.558071 12.078267 92.327891 11.8695 92.049535 11.778499 Z M 87.296063 9.241172 C 87.445947 9.182289 88.318487 9.155524 89.913684 9.155524 C 90.577457 9.155524 91.123464 9.160877 91.546352 9.171583 C 91.974593 9.182289 92.274361 9.192995 92.445658 9.214407 C 92.825721 9.230466 93.17902 9.332173 93.505554 9.508823 C 93.842793 9.690825 94.131856 9.921004 94.3888 10.199361 C 94.651098 10.472364 94.865218 10.782839 95.036514 11.136138 C 95.207811 11.484083 95.320224 11.837382 95.373754 12.201386 C 95.395166 12.276329 95.400519 12.463684 95.389813 12.768805 C 95.379107 13.073927 95.368401 13.421873 95.346989 13.812642 C 95.33093 14.198059 95.304165 14.57277 95.2774 14.942127 C 95.250635 15.316838 95.22387 15.6059 95.202457 15.814668 C 95.164986 16.232202 95.116809 16.580148 95.063279 16.853152 C 95.009749 17.131508 94.961572 17.334922 94.924101 17.468748 C 94.544037 18.335935 93.907029 19.031826 93.013077 19.545715 C 92.686543 19.6956 92.525953 19.791954 92.525953 19.829425 C 92.525953 19.845484 92.600895 20.12384 92.740073 20.653788 C 92.884604 21.183736 93.120137 21.992041 93.44667 23.073348 C 93.671497 23.98336 93.853499 24.69531 93.992677 25.219905 C 94.137209 25.7445 94.22821 26.103152 94.265681 26.290507 C 94.324564 26.649159 94.287093 26.948927 94.153268 27.200519 C 93.869558 27.692995 93.425258 27.917822 92.809662 27.880351 C 92.643719 27.864292 92.472423 27.805409 92.29042 27.709054 C 92.108418 27.618053 91.96924 27.494934 91.872886 27.339697 C 91.835415 27.248696 91.744413 26.895397 91.589176 26.279801 C 91.439292 25.658852 91.20376 24.770252 90.882579 23.614002 L 89.913684 20.086369 L 88.345253 20.022133 L 87.836717 26.916809 L 87.692185 27.173754 C 87.408476 27.682289 86.95347 27.917822 86.327168 27.880351 C 86.059518 27.84288 85.823985 27.751879 85.615218 27.596641 C 85.40645 27.446757 85.283331 27.227284 85.24586 26.943574 C 85.224448 26.831161 85.390391 24.363424 85.732984 19.545715 C 85.807926 18.351994 85.877515 17.195744 85.952457 16.093024 C 86.032753 14.979598 86.102342 13.994645 86.171931 13.13281 C 86.236167 12.265623 86.289697 11.564378 86.337874 11.03443 C 86.386051 10.499129 86.423522 10.204714 86.439581 10.151184 C 86.477052 9.979888 86.589465 9.797885 86.782174 9.61053 C 86.969529 9.417822 87.140825 9.294702 87.296063 9.241172 Z M 98.585559 9.101994 C 98.987035 9.101994 99.308216 9.278643 99.559807 9.637295 C 99.613337 9.696178 99.682926 9.926357 99.768574 10.32248 C 99.854223 10.723956 99.945224 11.205727 100.041578 11.778499 C 100.137932 12.345918 100.228933 12.966867 100.325287 13.635993 C 100.421642 14.310472 100.512643 14.94748 100.592938 15.557723 C 100.678586 16.162613 100.753528 16.697914 100.817764 17.168979 C 100.887353 17.629338 100.930177 17.939812 100.95159 18.089697 C 100.989061 18.394818 101.026532 18.721352 101.074709 19.07465 C 101.122886 19.422596 101.176416 19.743777 101.21924 20.032839 C 101.267417 20.311196 101.304888 20.552081 101.331653 20.739436 C 101.363771 20.932145 101.37983 21.033852 101.37983 21.049911 C 101.401242 21.28009 101.43336 21.419269 101.492243 21.478152 C 101.529715 21.365738 101.577892 21.242619 101.636775 21.108794 C 101.674246 20.996381 101.71707 20.862556 101.759894 20.696612 C 101.808071 20.536022 101.850895 20.370079 101.888366 20.198782 C 102.209547 19.005061 102.498609 17.971931 102.755554 17.110096 C 103.017851 16.248262 103.231971 15.509546 103.403268 14.904656 C 103.419327 14.867185 103.456798 14.744066 103.515681 14.535299 C 103.569211 14.326531 103.6388 14.080293 103.724448 13.796583 C 103.810097 13.512874 103.895745 13.218458 103.981393 12.913337 C 104.067041 12.608215 104.13663 12.345918 104.195513 12.115738 C 104.591636 10.697191 104.84858 9.915651 104.966347 9.781826 C 105.019877 9.66406 105.142996 9.535588 105.335704 9.385704 C 105.523059 9.235819 105.678297 9.150171 105.79071 9.128759 C 106.074419 9.069876 106.336717 9.1127 106.572249 9.251878 C 106.807782 9.39641 106.989784 9.61053 107.128962 9.894239 C 107.198551 10.145831 107.230669 10.381363 107.209257 10.611543 C 107.193198 10.702544 107.059373 11.178962 106.813135 12.035443 C 106.566896 12.886572 106.208245 14.080293 105.731827 15.616606 C 105.29288 17.061919 104.875345 18.448348 104.479223 19.786601 C 104.0831 21.1195 103.703036 22.414928 103.339032 23.672885 C 103.339032 23.688944 103.322973 23.71571 103.285502 23.753181 C 102.734142 25.63744 102.391549 26.734807 102.263077 27.055987 C 102.129252 27.361109 101.936543 27.601994 101.690305 27.773291 L 101.636775 27.800056 C 101.449419 27.912469 101.246005 27.965999 101.037238 27.965999 C 100.807058 27.965999 100.592938 27.89641 100.394877 27.751879 C 100.196815 27.6127 100.046931 27.436051 99.95593 27.227284 C 99.9024 27.11487 99.741809 26.258389 99.484865 24.663192 C 99.227921 23.073348 98.85321 20.750142 98.366086 17.698927 C 98.098436 16.082318 97.895021 14.84042 97.761196 13.978586 C 97.632724 13.116751 97.547076 12.618921 97.509605 12.485096 C 97.450721 12.067561 97.402544 11.719616 97.365073 11.435906 C 97.327602 11.146844 97.30619 10.911311 97.295484 10.718603 C 97.284778 10.531248 97.290131 10.381363 97.30619 10.26895 C 97.327602 10.151184 97.354367 10.049477 97.391838 9.958476 C 97.488192 9.722943 97.648783 9.524882 97.862903 9.358938 C 98.082377 9.187642 98.323262 9.101994 98.585559 9.101994 Z M 111.309663 9.214407 C 111.384605 9.192995 111.705785 9.182289 112.273204 9.171583 C 112.845976 9.160877 113.755988 9.155524 115.008592 9.155524 C 117.208679 9.155524 118.4024 9.176936 118.589755 9.214407 C 118.744993 9.267937 118.878818 9.364292 119.001937 9.498117 C 119.125056 9.631942 119.216057 9.787179 119.27494 9.958476 C 119.333824 10.124419 119.355236 10.301068 119.333824 10.488423 C 119.317765 10.681132 119.258881 10.863134 119.162527 11.03443 C 119.103644 11.146844 118.996584 11.275316 118.835994 11.409141 C 118.675403 11.537613 118.525519 11.612555 118.397047 11.628614 C 118.209692 11.666086 117.256856 11.687498 115.549246 11.687498 L 112.792446 11.687498 L 112.589032 14.422885 C 112.471266 16.167966 112.444501 17.035154 112.503384 17.035154 C 112.487325 17.035154 112.551561 17.035154 112.701445 17.035154 C 112.851329 17.035154 113.060097 17.040507 113.322394 17.051213 C 113.595398 17.061919 113.889813 17.061919 114.2217 17.061919 C 114.553586 17.061919 114.885473 17.061919 115.206653 17.061919 C 115.966781 17.061919 116.507435 17.072625 116.828615 17.083331 C 117.149796 17.094037 117.379975 17.110096 117.5138 17.126155 C 117.722568 17.147567 117.931335 17.276039 118.140102 17.522278 C 118.4024 17.805987 118.488048 18.14858 118.391694 18.550056 C 118.29534 18.951531 118.081219 19.2513 117.738627 19.460067 L 117.487035 19.62601 L 114.976474 19.62601 L 112.219674 19.658128 L 111.818198 25.316259 L 114.896179 25.316259 C 115.918604 25.316259 116.700143 25.321612 117.235444 25.332318 C 117.781451 25.343024 118.086572 25.359083 118.166868 25.380495 C 118.397047 25.455438 118.589755 25.616028 118.750346 25.862266 C 118.916289 26.108505 118.985878 26.365449 118.964466 26.6331 C 118.943054 27.120223 118.686109 27.500287 118.193633 27.773291 C 118.097278 27.810762 116.742967 27.84288 114.125345 27.880351 C 112.83527 27.880351 111.85567 27.880351 111.175837 27.869645 C 110.506711 27.858939 110.121295 27.84288 110.02494 27.826821 C 109.875056 27.78935 109.719819 27.687642 109.559229 27.516346 C 109.398638 27.34505 109.296931 27.179107 109.25946 27.029222 C 109.25946 26.820455 109.275519 26.418979 109.302284 25.830148 C 109.329049 25.24667 109.371873 24.540073 109.425403 23.726416 C 109.489639 22.912758 109.548523 22.013453 109.612759 21.023146 C 109.676995 20.038192 109.746584 19.047885 109.81082 18.052226 C 109.880409 17.056566 109.949998 16.087671 110.02494 15.145542 C 110.105235 14.203412 110.169472 13.368342 110.228355 12.629627 C 110.281885 11.890912 110.330062 11.280669 110.378239 10.809604 C 110.431769 10.333186 110.463887 10.065536 110.485299 10.012006 C 110.538829 9.87818 110.656595 9.71759 110.838598 9.540941 C 111.0206 9.358938 111.175837 9.251878 111.309663 9.214407 Z M 128.380409 11.778499 C 128.230525 11.735675 127.668459 11.714263 126.699564 11.714263 L 125.195369 11.714263 L 125.248899 11.832029 C 125.248899 11.848088 125.243546 12.008678 125.23284 12.303094 C 125.227487 12.597509 125.206075 12.945455 125.17931 13.352283 C 125.152545 13.759112 125.120427 14.176647 125.082956 14.604888 C 125.045485 15.033128 125.013366 15.397133 124.991954 15.702255 L 124.879541 17.495513 L 126.38909 17.495513 C 126.806625 17.495513 127.138511 17.49016 127.395456 17.479454 C 127.6524 17.474101 127.829049 17.458042 127.925404 17.43663 C 128.15023 17.404512 128.348291 17.297451 128.519588 17.126155 C 128.712296 16.976271 128.835415 16.794268 128.888945 16.585501 C 128.947828 16.376734 128.990652 16.007376 129.006711 15.472075 C 129.006711 15.322191 129.017417 15.081305 129.033476 14.765478 C 129.054889 14.438944 129.065595 14.107058 129.076301 13.769818 C 129.087007 13.427226 129.09236 13.122104 129.09236 12.859807 C 129.09236 12.592156 129.081654 12.436919 129.065595 12.399448 C 128.894298 12.078267 128.664119 11.8695 128.380409 11.778499 Z M 123.626937 9.241172 C 123.782174 9.182289 124.654715 9.155524 126.249912 9.155524 C 126.913685 9.155524 127.454339 9.160877 127.882579 9.171583 C 128.305467 9.182289 128.605236 9.192995 128.776532 9.214407 C 129.156596 9.230466 129.509894 9.332173 129.841781 9.508823 C 130.173667 9.690825 130.468083 9.921004 130.725027 10.199361 C 130.981972 10.472364 131.196092 10.782839 131.367389 11.136138 C 131.538685 11.484083 131.656451 11.837382 131.709981 12.201386 C 131.731393 12.276329 131.731393 12.463684 131.72604 12.768805 C 131.715334 13.073927 131.699275 13.421873 131.683216 13.812642 C 131.661804 14.198059 131.640392 14.57277 131.613627 14.942127 C 131.586862 15.316838 131.560097 15.6059 131.538685 15.814668 C 131.501214 16.232202 131.453037 16.580148 131.399507 16.853152 C 131.340624 17.131508 131.297799 17.334922 131.260328 17.468748 C 130.880265 18.335935 130.243257 19.031826 129.349304 19.545715 C 129.02277 19.6956 128.86218 19.791954 128.86218 19.829425 C 128.86218 19.845484 128.931769 20.12384 129.076301 20.653788 C 129.220832 21.183736 129.456364 21.992041 129.777545 23.073348 C 130.007724 23.98336 130.189727 24.69531 130.328905 25.219905 C 130.473436 25.7445 130.559084 26.103152 130.596555 26.290507 C 130.660791 26.649159 130.62332 26.948927 130.489495 27.200519 C 130.205786 27.692995 129.756133 27.917822 129.14589 27.880351 C 128.979946 27.864292 128.803297 27.805409 128.626648 27.709054 C 128.444645 27.618053 128.305467 27.494934 128.209113 27.339697 C 128.171642 27.248696 128.075288 26.895397 127.925404 26.279801 C 127.775519 25.658852 127.539987 24.770252 127.213453 23.614002 L 126.249912 20.086369 L 124.676127 20.022133 L 124.172944 26.916809 L 124.02306 27.173754 C 123.744703 27.682289 123.289697 27.917822 122.663395 27.880351 C 122.395745 27.84288 122.154859 27.751879 121.946092 27.596641 C 121.737325 27.446757 121.614206 27.227284 121.582087 26.943574 C 121.560675 26.831161 121.721266 24.363424 122.063858 19.545715 C 122.1388 18.351994 122.213743 17.195744 122.288685 16.093024 C 122.36898 14.979598 122.438569 13.994645 122.502805 13.13281 C 122.567041 12.265623 122.625924 11.564378 122.668748 11.03443 C 122.722278 10.499129 122.754397 10.204714 122.775809 10.151184 C 122.81328 9.979888 122.925693 9.797885 123.113048 9.61053 C 123.305757 9.417822 123.477053 9.294702 123.626937 9.241172 Z M 123.626937 9.241172 " stroke="#000180" stroke-width="2.135017" stroke-opacity="1" stroke-miterlimit="4"/></g><g fill="#6364ff" fill-opacity="1"><g transform="translate(31.016746, 22.986488)"><g><path d="M 6.484375 -11.03125 L 6.3125 -11.15625 L 5.28125 -11.171875 C 4.613281 -11.171875 4.222656 -11.15625 4.109375 -11.125 C 4.003906 -11.101562 3.898438 -11.039062 3.796875 -10.9375 C 3.703125 -10.832031 3.628906 -10.726562 3.578125 -10.625 C 3.578125 -10.601562 3.554688 -10.410156 3.515625 -10.046875 C 3.484375 -9.691406 3.445312 -9.242188 3.40625 -8.703125 C 3.363281 -8.171875 3.320312 -7.597656 3.28125 -6.984375 C 3.238281 -6.367188 3.195312 -5.789062 3.15625 -5.25 C 3.082031 -4.175781 3.023438 -3.351562 2.984375 -2.78125 C 2.941406 -2.21875 2.929688 -1.898438 2.953125 -1.828125 C 2.960938 -1.617188 3.09375 -1.457031 3.34375 -1.34375 C 3.457031 -1.289062 3.84375 -1.265625 4.5 -1.265625 C 5.164062 -1.265625 5.554688 -1.289062 5.671875 -1.34375 C 5.765625 -1.40625 5.867188 -1.488281 5.984375 -1.59375 C 6.109375 -1.707031 6.179688 -1.8125 6.203125 -1.90625 C 6.234375 -1.988281 6.328125 -3.113281 6.484375 -5.28125 L 6.828125 -10.484375 L 6.75 -10.6875 C 6.675781 -10.84375 6.585938 -10.957031 6.484375 -11.03125 Z M 4.09375 -13.015625 C 4.175781 -13.035156 4.617188 -13.035156 5.421875 -13.015625 C 5.753906 -13.015625 6.023438 -13.007812 6.234375 -13 C 6.441406 -13 6.59375 -12.992188 6.6875 -12.984375 C 6.96875 -12.953125 7.226562 -12.851562 7.46875 -12.6875 C 7.707031 -12.53125 7.921875 -12.335938 8.109375 -12.109375 C 8.296875 -11.890625 8.441406 -11.640625 8.546875 -11.359375 C 8.648438 -11.078125 8.703125 -10.800781 8.703125 -10.53125 C 8.703125 -10.445312 8.6875 -10.207031 8.65625 -9.8125 C 8.632812 -9.414062 8.601562 -8.945312 8.5625 -8.40625 C 8.53125 -7.863281 8.492188 -7.296875 8.453125 -6.703125 C 8.410156 -6.117188 8.367188 -5.585938 8.328125 -5.109375 L 8.078125 -1.625 L 7.9375 -1.28125 C 7.832031 -1.0625 7.703125 -0.84375 7.546875 -0.625 C 7.398438 -0.414062 7.226562 -0.222656 7.03125 -0.046875 C 6.832031 0.117188 6.613281 0.257812 6.375 0.375 C 6.132812 0.5 5.890625 0.566406 5.640625 0.578125 C 5.535156 0.597656 5.378906 0.609375 5.171875 0.609375 C 4.960938 0.617188 4.695312 0.625 4.375 0.625 C 4.007812 0.625 3.65625 0.609375 3.3125 0.578125 C 2.96875 0.554688 2.65625 0.484375 2.375 0.359375 C 2.101562 0.242188 1.859375 0.0625 1.640625 -0.1875 C 1.429688 -0.4375 1.265625 -0.78125 1.140625 -1.21875 L 1.03125 -1.53125 L 1.703125 -10.875 L 1.828125 -11.1875 C 2.035156 -11.664062 2.332031 -12.066406 2.71875 -12.390625 C 3.101562 -12.722656 3.5625 -12.929688 4.09375 -13.015625 Z M 4.09375 -13.015625 "/></g></g></g><g fill="#6364ff" fill-opacity="1"><g transform="translate(40.754634, 22.986488)"><g><path d="M 6.015625 -11.109375 C 5.910156 -11.140625 5.503906 -11.15625 4.796875 -11.15625 L 3.703125 -11.15625 L 3.734375 -11.0625 C 3.734375 -11.050781 3.726562 -10.9375 3.71875 -10.71875 C 3.71875 -10.507812 3.707031 -10.253906 3.6875 -9.953125 C 3.664062 -9.660156 3.640625 -9.359375 3.609375 -9.046875 C 3.585938 -8.734375 3.566406 -8.46875 3.546875 -8.25 L 3.46875 -6.9375 L 4.5625 -6.9375 C 4.875 -6.9375 5.117188 -6.9375 5.296875 -6.9375 C 5.484375 -6.945312 5.613281 -6.960938 5.6875 -6.984375 C 5.851562 -7.003906 6 -7.078125 6.125 -7.203125 C 6.257812 -7.316406 6.347656 -7.445312 6.390625 -7.59375 C 6.429688 -7.75 6.460938 -8.019531 6.484375 -8.40625 C 6.484375 -8.519531 6.488281 -8.691406 6.5 -8.921875 C 6.507812 -9.160156 6.519531 -9.40625 6.53125 -9.65625 C 6.539062 -9.90625 6.546875 -10.125 6.546875 -10.3125 C 6.546875 -10.507812 6.535156 -10.625 6.515625 -10.65625 C 6.390625 -10.882812 6.222656 -11.035156 6.015625 -11.109375 Z M 2.546875 -12.953125 C 2.660156 -12.992188 3.300781 -13.015625 4.46875 -13.015625 C 4.945312 -13.015625 5.34375 -13.007812 5.65625 -13 C 5.96875 -13 6.1875 -12.992188 6.3125 -12.984375 C 6.59375 -12.960938 6.851562 -12.882812 7.09375 -12.75 C 7.332031 -12.625 7.546875 -12.460938 7.734375 -12.265625 C 7.921875 -12.066406 8.078125 -11.835938 8.203125 -11.578125 C 8.328125 -11.316406 8.410156 -11.054688 8.453125 -10.796875 C 8.460938 -10.742188 8.460938 -10.601562 8.453125 -10.375 C 8.453125 -10.15625 8.441406 -9.90625 8.421875 -9.625 C 8.410156 -9.34375 8.394531 -9.066406 8.375 -8.796875 C 8.351562 -8.523438 8.335938 -8.3125 8.328125 -8.15625 C 8.296875 -7.851562 8.257812 -7.601562 8.21875 -7.40625 C 8.175781 -7.207031 8.144531 -7.054688 8.125 -6.953125 C 7.84375 -6.316406 7.378906 -5.8125 6.734375 -5.4375 C 6.492188 -5.332031 6.375 -5.265625 6.375 -5.234375 C 6.375 -5.222656 6.425781 -5.019531 6.53125 -4.625 C 6.632812 -4.238281 6.804688 -3.648438 7.046875 -2.859375 C 7.203125 -2.203125 7.332031 -1.679688 7.4375 -1.296875 C 7.539062 -0.921875 7.609375 -0.660156 7.640625 -0.515625 C 7.679688 -0.253906 7.65625 -0.0351562 7.5625 0.140625 C 7.351562 0.503906 7.023438 0.671875 6.578125 0.640625 C 6.453125 0.628906 6.320312 0.585938 6.1875 0.515625 C 6.0625 0.453125 5.960938 0.363281 5.890625 0.25 C 5.867188 0.175781 5.800781 -0.0820312 5.6875 -0.53125 C 5.582031 -0.976562 5.410156 -1.625 5.171875 -2.46875 L 4.46875 -5.046875 L 3.328125 -5.09375 L 2.953125 -0.0625 L 2.84375 0.125 C 2.632812 0.5 2.300781 0.671875 1.84375 0.640625 C 1.65625 0.617188 1.484375 0.550781 1.328125 0.4375 C 1.171875 0.320312 1.082031 0.160156 1.0625 -0.046875 C 1.039062 -0.128906 1.15625 -1.925781 1.40625 -5.4375 C 1.46875 -6.3125 1.523438 -7.148438 1.578125 -7.953125 C 1.628906 -8.765625 1.679688 -9.484375 1.734375 -10.109375 C 1.785156 -10.742188 1.828125 -11.253906 1.859375 -11.640625 C 1.890625 -12.035156 1.914062 -12.253906 1.9375 -12.296875 C 1.957031 -12.421875 2.035156 -12.550781 2.171875 -12.6875 C 2.316406 -12.820312 2.441406 -12.910156 2.546875 -12.953125 Z M 2.546875 -12.953125 "/></g></g></g><g fill="#6364ff" fill-opacity="1"><g transform="translate(49.97344, 22.986488)"><g><path d="M 5.890625 -11.0625 C 5.835938 -11.09375 5.722656 -11.113281 5.546875 -11.125 C 5.367188 -11.144531 5.09375 -11.15625 4.71875 -11.15625 L 3.59375 -11.171875 L 3.40625 -8.5625 C 3.363281 -8.125 3.320312 -7.664062 3.28125 -7.1875 C 3.25 -6.71875 3.21875 -6.25 3.1875 -5.78125 C 3.164062 -5.320312 3.140625 -4.875 3.109375 -4.4375 C 3.085938 -4 3.0625 -3.609375 3.03125 -3.265625 L 2.890625 -1.203125 L 3.984375 -1.21875 C 4.734375 -1.21875 5.171875 -1.253906 5.296875 -1.328125 C 5.566406 -1.460938 5.796875 -1.675781 5.984375 -1.96875 L 6.109375 -2.203125 L 6.375 -6.25 L 6.5625 -10.296875 L 6.484375 -10.46875 C 6.359375 -10.738281 6.160156 -10.9375 5.890625 -11.0625 Z M 4.359375 -13.015625 C 4.867188 -13.003906 5.253906 -12.992188 5.515625 -12.984375 C 5.785156 -12.984375 5.972656 -12.972656 6.078125 -12.953125 C 6.191406 -12.941406 6.3125 -12.910156 6.4375 -12.859375 C 6.5625 -12.816406 6.707031 -12.757812 6.875 -12.6875 C 7.25 -12.488281 7.570312 -12.207031 7.84375 -11.84375 C 8.113281 -11.476562 8.289062 -11.066406 8.375 -10.609375 C 8.394531 -10.515625 8.398438 -10.078125 8.390625 -9.296875 C 8.390625 -8.523438 8.34375 -7.492188 8.25 -6.203125 C 8.175781 -5.128906 8.113281 -4.226562 8.0625 -3.5 C 8.019531 -2.78125 7.984375 -2.34375 7.953125 -2.1875 C 7.878906 -1.832031 7.75 -1.488281 7.5625 -1.15625 C 7.21875 -0.476562 6.695312 0.015625 6 0.328125 C 5.84375 0.398438 5.695312 0.457031 5.5625 0.5 C 5.4375 0.539062 5.320312 0.566406 5.21875 0.578125 C 4.988281 0.609375 4.382812 0.628906 3.40625 0.640625 C 2.238281 0.671875 1.59375 0.648438 1.46875 0.578125 C 1.289062 0.523438 1.15625 0.378906 1.0625 0.140625 C 1.03125 0.078125 1.046875 -0.492188 1.109375 -1.578125 C 1.171875 -2.671875 1.269531 -4.1875 1.40625 -6.125 C 1.550781 -8.070312 1.664062 -9.585938 1.75 -10.671875 C 1.832031 -11.765625 1.878906 -12.335938 1.890625 -12.390625 C 1.929688 -12.492188 2.007812 -12.597656 2.125 -12.703125 C 2.175781 -12.765625 2.226562 -12.816406 2.28125 -12.859375 C 2.34375 -12.898438 2.398438 -12.929688 2.453125 -12.953125 C 2.546875 -13.015625 3.179688 -13.035156 4.359375 -13.015625 Z M 4.359375 -13.015625 "/></g></g></g><g fill="#6364ff" fill-opacity="1"><g transform="translate(59.420643, 22.986488)"><g><path d="M 6.484375 -11.03125 L 6.3125 -11.15625 L 5.28125 -11.171875 C 4.613281 -11.171875 4.222656 -11.15625 4.109375 -11.125 C 4.003906 -11.101562 3.898438 -11.039062 3.796875 -10.9375 C 3.703125 -10.832031 3.628906 -10.726562 3.578125 -10.625 C 3.578125 -10.601562 3.554688 -10.410156 3.515625 -10.046875 C 3.484375 -9.691406 3.445312 -9.242188 3.40625 -8.703125 C 3.363281 -8.171875 3.320312 -7.597656 3.28125 -6.984375 C 3.238281 -6.367188 3.195312 -5.789062 3.15625 -5.25 C 3.082031 -4.175781 3.023438 -3.351562 2.984375 -2.78125 C 2.941406 -2.21875 2.929688 -1.898438 2.953125 -1.828125 C 2.960938 -1.617188 3.09375 -1.457031 3.34375 -1.34375 C 3.457031 -1.289062 3.84375 -1.265625 4.5 -1.265625 C 5.164062 -1.265625 5.554688 -1.289062 5.671875 -1.34375 C 5.765625 -1.40625 5.867188 -1.488281 5.984375 -1.59375 C 6.109375 -1.707031 6.179688 -1.8125 6.203125 -1.90625 C 6.234375 -1.988281 6.328125 -3.113281 6.484375 -5.28125 L 6.828125 -10.484375 L 6.75 -10.6875 C 6.675781 -10.84375 6.585938 -10.957031 6.484375 -11.03125 Z M 4.09375 -13.015625 C 4.175781 -13.035156 4.617188 -13.035156 5.421875 -13.015625 C 5.753906 -13.015625 6.023438 -13.007812 6.234375 -13 C 6.441406 -13 6.59375 -12.992188 6.6875 -12.984375 C 6.96875 -12.953125 7.226562 -12.851562 7.46875 -12.6875 C 7.707031 -12.53125 7.921875 -12.335938 8.109375 -12.109375 C 8.296875 -11.890625 8.441406 -11.640625 8.546875 -11.359375 C 8.648438 -11.078125 8.703125 -10.800781 8.703125 -10.53125 C 8.703125 -10.445312 8.6875 -10.207031 8.65625 -9.8125 C 8.632812 -9.414062 8.601562 -8.945312 8.5625 -8.40625 C 8.53125 -7.863281 8.492188 -7.296875 8.453125 -6.703125 C 8.410156 -6.117188 8.367188 -5.585938 8.328125 -5.109375 L 8.078125 -1.625 L 7.9375 -1.28125 C 7.832031 -1.0625 7.703125 -0.84375 7.546875 -0.625 C 7.398438 -0.414062 7.226562 -0.222656 7.03125 -0.046875 C 6.832031 0.117188 6.613281 0.257812 6.375 0.375 C 6.132812 0.5 5.890625 0.566406 5.640625 0.578125 C 5.535156 0.597656 5.378906 0.609375 5.171875 0.609375 C 4.960938 0.617188 4.695312 0.625 4.375 0.625 C 4.007812 0.625 3.65625 0.609375 3.3125 0.578125 C 2.96875 0.554688 2.65625 0.484375 2.375 0.359375 C 2.101562 0.242188 1.859375 0.0625 1.640625 -0.1875 C 1.429688 -0.4375 1.265625 -0.78125 1.140625 -1.21875 L 1.03125 -1.53125 L 1.703125 -10.875 L 1.828125 -11.1875 C 2.035156 -11.664062 2.332031 -12.066406 2.71875 -12.390625 C 3.101562 -12.722656 3.5625 -12.929688 4.09375 -13.015625 Z M 4.09375 -13.015625 "/></g></g></g><g fill="#6364ff" fill-opacity="1"><g transform="translate(69.158531, 22.986488)"><g/></g></g><g fill="#6364ff" fill-opacity="1"><g transform="translate(74.349303, 22.986488)"><g><path d="M 4.109375 -12.984375 C 4.179688 -13.003906 4.34375 -13.015625 4.59375 -13.015625 C 4.851562 -13.015625 5.203125 -13.015625 5.640625 -13.015625 C 6.078125 -13.003906 6.414062 -13 6.65625 -13 C 6.894531 -13 7.035156 -12.992188 7.078125 -12.984375 C 7.203125 -12.960938 7.332031 -12.890625 7.46875 -12.765625 C 7.507812 -12.742188 7.550781 -12.671875 7.59375 -12.546875 C 7.632812 -12.421875 7.644531 -12.265625 7.625 -12.078125 C 7.59375 -11.921875 7.550781 -11.769531 7.5 -11.625 C 7.457031 -11.476562 7.363281 -11.351562 7.21875 -11.25 L 7.015625 -11.171875 L 4.171875 -11.125 L 3.96875 -11.03125 C 3.625 -10.84375 3.390625 -10.613281 3.265625 -10.34375 C 3.148438 -10.082031 3.078125 -9.769531 3.046875 -9.40625 C 3.035156 -9.03125 3.066406 -8.734375 3.140625 -8.515625 C 3.191406 -8.390625 3.25 -8.273438 3.3125 -8.171875 C 3.375 -8.078125 3.457031 -7.988281 3.5625 -7.90625 C 3.664062 -7.820312 3.796875 -7.742188 3.953125 -7.671875 C 4.109375 -7.597656 4.3125 -7.519531 4.5625 -7.4375 C 5.21875 -7.195312 5.78125 -6.847656 6.25 -6.390625 C 6.71875 -5.929688 7.015625 -5.34375 7.140625 -4.625 C 7.179688 -4.414062 7.179688 -3.992188 7.140625 -3.359375 C 7.128906 -3.054688 7.109375 -2.796875 7.078125 -2.578125 C 7.054688 -2.367188 7.03125 -2.207031 7 -2.09375 C 6.78125 -1.382812 6.398438 -0.78125 5.859375 -0.28125 C 5.316406 0.207031 4.671875 0.507812 3.921875 0.625 C 3.859375 0.632812 3.71875 0.640625 3.5 0.640625 C 3.28125 0.640625 2.992188 0.640625 2.640625 0.640625 C 1.859375 0.671875 1.375 0.671875 1.1875 0.640625 C 1.082031 0.628906 0.992188 0.613281 0.921875 0.59375 C 0.847656 0.570312 0.773438 0.523438 0.703125 0.453125 C 0.453125 0.203125 0.359375 -0.09375 0.421875 -0.4375 C 0.484375 -0.78125 0.675781 -1.050781 1 -1.25 L 1.203125 -1.375 L 2.453125 -1.375 C 2.878906 -1.375 3.207031 -1.375 3.4375 -1.375 C 3.675781 -1.382812 3.832031 -1.394531 3.90625 -1.40625 C 4.445312 -1.53125 4.851562 -1.84375 5.125 -2.34375 C 5.15625 -2.414062 5.175781 -2.472656 5.1875 -2.515625 C 5.207031 -2.554688 5.222656 -2.609375 5.234375 -2.671875 C 5.242188 -2.734375 5.253906 -2.816406 5.265625 -2.921875 C 5.273438 -3.035156 5.285156 -3.179688 5.296875 -3.359375 C 5.304688 -3.628906 5.3125 -3.859375 5.3125 -4.046875 C 5.3125 -4.242188 5.300781 -4.382812 5.28125 -4.46875 C 5.164062 -4.769531 4.976562 -5 4.71875 -5.15625 C 4.644531 -5.195312 4.53125 -5.242188 4.375 -5.296875 C 4.226562 -5.347656 4.035156 -5.425781 3.796875 -5.53125 C 3.523438 -5.632812 3.300781 -5.726562 3.125 -5.8125 C 2.945312 -5.894531 2.804688 -5.972656 2.703125 -6.046875 C 2.585938 -6.097656 2.472656 -6.164062 2.359375 -6.25 C 2.253906 -6.332031 2.144531 -6.441406 2.03125 -6.578125 C 1.6875 -6.953125 1.441406 -7.351562 1.296875 -7.78125 C 1.148438 -8.21875 1.09375 -8.703125 1.125 -9.234375 C 1.144531 -9.648438 1.234375 -10.066406 1.390625 -10.484375 C 1.546875 -10.898438 1.75 -11.28125 2 -11.625 C 2.257812 -11.96875 2.566406 -12.257812 2.921875 -12.5 C 3.285156 -12.738281 3.679688 -12.898438 4.109375 -12.984375 Z M 4.109375 -12.984375 "/></g></g></g><g fill="#6364ff" fill-opacity="1"><g transform="translate(82.509191, 22.986488)"><g><path d="M 2.53125 -12.984375 C 2.582031 -12.992188 2.816406 -13 3.234375 -13 C 3.648438 -13.007812 4.316406 -13.015625 5.234375 -13.015625 C 6.835938 -13.015625 7.707031 -13.003906 7.84375 -12.984375 C 7.957031 -12.941406 8.054688 -12.867188 8.140625 -12.765625 C 8.234375 -12.671875 8.300781 -12.5625 8.34375 -12.4375 C 8.382812 -12.3125 8.398438 -12.179688 8.390625 -12.046875 C 8.378906 -11.910156 8.335938 -11.78125 8.265625 -11.65625 C 8.222656 -11.570312 8.140625 -11.476562 8.015625 -11.375 C 7.898438 -11.28125 7.796875 -11.226562 7.703125 -11.21875 C 7.566406 -11.1875 6.875 -11.171875 5.625 -11.171875 L 3.609375 -11.171875 L 3.46875 -9.171875 C 3.382812 -7.898438 3.363281 -7.265625 3.40625 -7.265625 C 3.394531 -7.265625 3.441406 -7.265625 3.546875 -7.265625 C 3.660156 -7.265625 3.8125 -7.257812 4 -7.25 C 4.195312 -7.25 4.414062 -7.25 4.65625 -7.25 C 4.90625 -7.25 5.144531 -7.25 5.375 -7.25 C 5.925781 -7.25 6.320312 -7.242188 6.5625 -7.234375 C 6.800781 -7.222656 6.96875 -7.210938 7.0625 -7.203125 C 7.207031 -7.191406 7.359375 -7.097656 7.515625 -6.921875 C 7.710938 -6.710938 7.773438 -6.460938 7.703125 -6.171875 C 7.628906 -5.878906 7.46875 -5.65625 7.21875 -5.5 L 7.046875 -5.375 L 5.21875 -5.375 L 3.203125 -5.359375 L 2.90625 -1.21875 L 5.15625 -1.21875 C 5.894531 -1.21875 6.460938 -1.210938 6.859375 -1.203125 C 7.253906 -1.203125 7.476562 -1.195312 7.53125 -1.1875 C 7.695312 -1.125 7.835938 -1.003906 7.953125 -0.828125 C 8.078125 -0.648438 8.132812 -0.460938 8.125 -0.265625 C 8.101562 0.0859375 7.914062 0.363281 7.5625 0.5625 C 7.488281 0.59375 6.5 0.617188 4.59375 0.640625 C 3.644531 0.640625 2.925781 0.632812 2.4375 0.625 C 1.945312 0.625 1.664062 0.617188 1.59375 0.609375 C 1.488281 0.578125 1.375 0.5 1.25 0.375 C 1.132812 0.25 1.0625 0.128906 1.03125 0.015625 C 1.03125 -0.128906 1.039062 -0.414062 1.0625 -0.84375 C 1.082031 -1.28125 1.113281 -1.796875 1.15625 -2.390625 C 1.195312 -2.984375 1.242188 -3.640625 1.296875 -4.359375 C 1.347656 -5.078125 1.394531 -5.800781 1.4375 -6.53125 C 1.488281 -7.257812 1.539062 -7.960938 1.59375 -8.640625 C 1.65625 -9.328125 1.707031 -9.941406 1.75 -10.484375 C 1.789062 -11.023438 1.828125 -11.46875 1.859375 -11.8125 C 1.890625 -12.15625 1.914062 -12.347656 1.9375 -12.390625 C 1.976562 -12.492188 2.0625 -12.609375 2.1875 -12.734375 C 2.320312 -12.867188 2.4375 -12.953125 2.53125 -12.984375 Z M 2.53125 -12.984375 "/></g></g></g><g fill="#6364ff" fill-opacity="1"><g transform="translate(91.478844, 22.986488)"><g><path d="M 6.015625 -11.109375 C 5.910156 -11.140625 5.503906 -11.15625 4.796875 -11.15625 L 3.703125 -11.15625 L 3.734375 -11.0625 C 3.734375 -11.050781 3.726562 -10.9375 3.71875 -10.71875 C 3.71875 -10.507812 3.707031 -10.253906 3.6875 -9.953125 C 3.664062 -9.660156 3.640625 -9.359375 3.609375 -9.046875 C 3.585938 -8.734375 3.566406 -8.46875 3.546875 -8.25 L 3.46875 -6.9375 L 4.5625 -6.9375 C 4.875 -6.9375 5.117188 -6.9375 5.296875 -6.9375 C 5.484375 -6.945312 5.613281 -6.960938 5.6875 -6.984375 C 5.851562 -7.003906 6 -7.078125 6.125 -7.203125 C 6.257812 -7.316406 6.347656 -7.445312 6.390625 -7.59375 C 6.429688 -7.75 6.460938 -8.019531 6.484375 -8.40625 C 6.484375 -8.519531 6.488281 -8.691406 6.5 -8.921875 C 6.507812 -9.160156 6.519531 -9.40625 6.53125 -9.65625 C 6.539062 -9.90625 6.546875 -10.125 6.546875 -10.3125 C 6.546875 -10.507812 6.535156 -10.625 6.515625 -10.65625 C 6.390625 -10.882812 6.222656 -11.035156 6.015625 -11.109375 Z M 2.546875 -12.953125 C 2.660156 -12.992188 3.300781 -13.015625 4.46875 -13.015625 C 4.945312 -13.015625 5.34375 -13.007812 5.65625 -13 C 5.96875 -13 6.1875 -12.992188 6.3125 -12.984375 C 6.59375 -12.960938 6.851562 -12.882812 7.09375 -12.75 C 7.332031 -12.625 7.546875 -12.460938 7.734375 -12.265625 C 7.921875 -12.066406 8.078125 -11.835938 8.203125 -11.578125 C 8.328125 -11.316406 8.410156 -11.054688 8.453125 -10.796875 C 8.460938 -10.742188 8.460938 -10.601562 8.453125 -10.375 C 8.453125 -10.15625 8.441406 -9.90625 8.421875 -9.625 C 8.410156 -9.34375 8.394531 -9.066406 8.375 -8.796875 C 8.351562 -8.523438 8.335938 -8.3125 8.328125 -8.15625 C 8.296875 -7.851562 8.257812 -7.601562 8.21875 -7.40625 C 8.175781 -7.207031 8.144531 -7.054688 8.125 -6.953125 C 7.84375 -6.316406 7.378906 -5.8125 6.734375 -5.4375 C 6.492188 -5.332031 6.375 -5.265625 6.375 -5.234375 C 6.375 -5.222656 6.425781 -5.019531 6.53125 -4.625 C 6.632812 -4.238281 6.804688 -3.648438 7.046875 -2.859375 C 7.203125 -2.203125 7.332031 -1.679688 7.4375 -1.296875 C 7.539062 -0.921875 7.609375 -0.660156 7.640625 -0.515625 C 7.679688 -0.253906 7.65625 -0.0351562 7.5625 0.140625 C 7.351562 0.503906 7.023438 0.671875 6.578125 0.640625 C 6.453125 0.628906 6.320312 0.585938 6.1875 0.515625 C 6.0625 0.453125 5.960938 0.363281 5.890625 0.25 C 5.867188 0.175781 5.800781 -0.0820312 5.6875 -0.53125 C 5.582031 -0.976562 5.410156 -1.625 5.171875 -2.46875 L 4.46875 -5.046875 L 3.328125 -5.09375 L 2.953125 -0.0625 L 2.84375 0.125 C 2.632812 0.5 2.300781 0.671875 1.84375 0.640625 C 1.65625 0.617188 1.484375 0.550781 1.328125 0.4375 C 1.171875 0.320312 1.082031 0.160156 1.0625 -0.046875 C 1.039062 -0.128906 1.15625 -1.925781 1.40625 -5.4375 C 1.46875 -6.3125 1.523438 -7.148438 1.578125 -7.953125 C 1.628906 -8.765625 1.679688 -9.484375 1.734375 -10.109375 C 1.785156 -10.742188 1.828125 -11.253906 1.859375 -11.640625 C 1.890625 -12.035156 1.914062 -12.253906 1.9375 -12.296875 C 1.957031 -12.421875 2.035156 -12.550781 2.171875 -12.6875 C 2.316406 -12.820312 2.441406 -12.910156 2.546875 -12.953125 Z M 2.546875 -12.953125 "/></g></g></g><g fill="#6364ff" fill-opacity="1"><g transform="translate(100.69765, 22.986488)"><g><path d="M 1.578125 -13.0625 C 1.867188 -13.0625 2.101562 -12.929688 2.28125 -12.671875 C 2.320312 -12.628906 2.375 -12.460938 2.4375 -12.171875 C 2.5 -11.878906 2.5625 -11.523438 2.625 -11.109375 C 2.695312 -10.691406 2.769531 -10.238281 2.84375 -9.75 C 2.914062 -9.257812 2.984375 -8.789062 3.046875 -8.34375 C 3.109375 -7.90625 3.160156 -7.515625 3.203125 -7.171875 C 3.253906 -6.835938 3.285156 -6.613281 3.296875 -6.5 C 3.328125 -6.28125 3.359375 -6.039062 3.390625 -5.78125 C 3.429688 -5.53125 3.46875 -5.300781 3.5 -5.09375 C 3.53125 -4.882812 3.554688 -4.707031 3.578125 -4.5625 C 3.597656 -4.425781 3.609375 -4.351562 3.609375 -4.34375 C 3.628906 -4.175781 3.660156 -4.070312 3.703125 -4.03125 C 3.722656 -4.113281 3.753906 -4.203125 3.796875 -4.296875 C 3.828125 -4.378906 3.859375 -4.476562 3.890625 -4.59375 C 3.929688 -4.71875 3.960938 -4.84375 3.984375 -4.96875 C 4.222656 -5.832031 4.4375 -6.578125 4.625 -7.203125 C 4.8125 -7.835938 4.96875 -8.378906 5.09375 -8.828125 C 5.101562 -8.847656 5.128906 -8.9375 5.171875 -9.09375 C 5.210938 -9.25 5.265625 -9.429688 5.328125 -9.640625 C 5.390625 -9.847656 5.453125 -10.0625 5.515625 -10.28125 C 5.578125 -10.5 5.628906 -10.691406 5.671875 -10.859375 C 5.960938 -11.898438 6.148438 -12.46875 6.234375 -12.5625 C 6.273438 -12.644531 6.363281 -12.738281 6.5 -12.84375 C 6.632812 -12.957031 6.742188 -13.023438 6.828125 -13.046875 C 7.035156 -13.085938 7.222656 -13.054688 7.390625 -12.953125 C 7.566406 -12.847656 7.707031 -12.691406 7.8125 -12.484375 C 7.863281 -12.296875 7.882812 -12.125 7.875 -11.96875 C 7.851562 -11.894531 7.753906 -11.546875 7.578125 -10.921875 C 7.398438 -10.296875 7.140625 -9.425781 6.796875 -8.3125 C 6.472656 -7.257812 6.164062 -6.242188 5.875 -5.265625 C 5.582031 -4.285156 5.304688 -3.335938 5.046875 -2.421875 C 5.046875 -2.410156 5.03125 -2.394531 5 -2.375 C 4.601562 -1 4.351562 -0.191406 4.25 0.046875 C 4.15625 0.265625 4.019531 0.4375 3.84375 0.5625 L 3.796875 0.578125 C 3.660156 0.660156 3.515625 0.703125 3.359375 0.703125 C 3.191406 0.703125 3.035156 0.648438 2.890625 0.546875 C 2.742188 0.441406 2.640625 0.316406 2.578125 0.171875 C 2.535156 0.0859375 2.421875 -0.535156 2.234375 -1.703125 C 2.046875 -2.867188 1.769531 -4.566406 1.40625 -6.796875 C 1.21875 -7.972656 1.070312 -8.875 0.96875 -9.5 C 0.875 -10.125 0.816406 -10.488281 0.796875 -10.59375 C 0.753906 -10.894531 0.71875 -11.148438 0.6875 -11.359375 C 0.65625 -11.566406 0.632812 -11.738281 0.625 -11.875 C 0.625 -12.007812 0.628906 -12.117188 0.640625 -12.203125 C 0.660156 -12.285156 0.679688 -12.363281 0.703125 -12.4375 C 0.773438 -12.601562 0.890625 -12.75 1.046875 -12.875 C 1.203125 -13 1.378906 -13.0625 1.578125 -13.0625 Z M 1.578125 -13.0625 "/></g></g></g><g fill="#6364ff" fill-opacity="1"><g transform="translate(109.023646, 22.986488)"><g><path d="M 2.53125 -12.984375 C 2.582031 -12.992188 2.816406 -13 3.234375 -13 C 3.648438 -13.007812 4.316406 -13.015625 5.234375 -13.015625 C 6.835938 -13.015625 7.707031 -13.003906 7.84375 -12.984375 C 7.957031 -12.941406 8.054688 -12.867188 8.140625 -12.765625 C 8.234375 -12.671875 8.300781 -12.5625 8.34375 -12.4375 C 8.382812 -12.3125 8.398438 -12.179688 8.390625 -12.046875 C 8.378906 -11.910156 8.335938 -11.78125 8.265625 -11.65625 C 8.222656 -11.570312 8.140625 -11.476562 8.015625 -11.375 C 7.898438 -11.28125 7.796875 -11.226562 7.703125 -11.21875 C 7.566406 -11.1875 6.875 -11.171875 5.625 -11.171875 L 3.609375 -11.171875 L 3.46875 -9.171875 C 3.382812 -7.898438 3.363281 -7.265625 3.40625 -7.265625 C 3.394531 -7.265625 3.441406 -7.265625 3.546875 -7.265625 C 3.660156 -7.265625 3.8125 -7.257812 4 -7.25 C 4.195312 -7.25 4.414062 -7.25 4.65625 -7.25 C 4.90625 -7.25 5.144531 -7.25 5.375 -7.25 C 5.925781 -7.25 6.320312 -7.242188 6.5625 -7.234375 C 6.800781 -7.222656 6.96875 -7.210938 7.0625 -7.203125 C 7.207031 -7.191406 7.359375 -7.097656 7.515625 -6.921875 C 7.710938 -6.710938 7.773438 -6.460938 7.703125 -6.171875 C 7.628906 -5.878906 7.46875 -5.65625 7.21875 -5.5 L 7.046875 -5.375 L 5.21875 -5.375 L 3.203125 -5.359375 L 2.90625 -1.21875 L 5.15625 -1.21875 C 5.894531 -1.21875 6.460938 -1.210938 6.859375 -1.203125 C 7.253906 -1.203125 7.476562 -1.195312 7.53125 -1.1875 C 7.695312 -1.125 7.835938 -1.003906 7.953125 -0.828125 C 8.078125 -0.648438 8.132812 -0.460938 8.125 -0.265625 C 8.101562 0.0859375 7.914062 0.363281 7.5625 0.5625 C 7.488281 0.59375 6.5 0.617188 4.59375 0.640625 C 3.644531 0.640625 2.925781 0.632812 2.4375 0.625 C 1.945312 0.625 1.664062 0.617188 1.59375 0.609375 C 1.488281 0.578125 1.375 0.5 1.25 0.375 C 1.132812 0.25 1.0625 0.128906 1.03125 0.015625 C 1.03125 -0.128906 1.039062 -0.414062 1.0625 -0.84375 C 1.082031 -1.28125 1.113281 -1.796875 1.15625 -2.390625 C 1.195312 -2.984375 1.242188 -3.640625 1.296875 -4.359375 C 1.347656 -5.078125 1.394531 -5.800781 1.4375 -6.53125 C 1.488281 -7.257812 1.539062 -7.960938 1.59375 -8.640625 C 1.65625 -9.328125 1.707031 -9.941406 1.75 -10.484375 C 1.789062 -11.023438 1.828125 -11.46875 1.859375 -11.8125 C 1.890625 -12.15625 1.914062 -12.347656 1.9375 -12.390625 C 1.976562 -12.492188 2.0625 -12.609375 2.1875 -12.734375 C 2.320312 -12.867188 2.4375 -12.953125 2.53125 -12.984375 Z M 2.53125 -12.984375 "/></g></g></g><g fill="#6364ff" fill-opacity="1"><g transform="translate(117.9933, 22.986488)"><g><path d="M 6.015625 -11.109375 C 5.910156 -11.140625 5.503906 -11.15625 4.796875 -11.15625 L 3.703125 -11.15625 L 3.734375 -11.0625 C 3.734375 -11.050781 3.726562 -10.9375 3.71875 -10.71875 C 3.71875 -10.507812 3.707031 -10.253906 3.6875 -9.953125 C 3.664062 -9.660156 3.640625 -9.359375 3.609375 -9.046875 C 3.585938 -8.734375 3.566406 -8.46875 3.546875 -8.25 L 3.46875 -6.9375 L 4.5625 -6.9375 C 4.875 -6.9375 5.117188 -6.9375 5.296875 -6.9375 C 5.484375 -6.945312 5.613281 -6.960938 5.6875 -6.984375 C 5.851562 -7.003906 6 -7.078125 6.125 -7.203125 C 6.257812 -7.316406 6.347656 -7.445312 6.390625 -7.59375 C 6.429688 -7.75 6.460938 -8.019531 6.484375 -8.40625 C 6.484375 -8.519531 6.488281 -8.691406 6.5 -8.921875 C 6.507812 -9.160156 6.519531 -9.40625 6.53125 -9.65625 C 6.539062 -9.90625 6.546875 -10.125 6.546875 -10.3125 C 6.546875 -10.507812 6.535156 -10.625 6.515625 -10.65625 C 6.390625 -10.882812 6.222656 -11.035156 6.015625 -11.109375 Z M 2.546875 -12.953125 C 2.660156 -12.992188 3.300781 -13.015625 4.46875 -13.015625 C 4.945312 -13.015625 5.34375 -13.007812 5.65625 -13 C 5.96875 -13 6.1875 -12.992188 6.3125 -12.984375 C 6.59375 -12.960938 6.851562 -12.882812 7.09375 -12.75 C 7.332031 -12.625 7.546875 -12.460938 7.734375 -12.265625 C 7.921875 -12.066406 8.078125 -11.835938 8.203125 -11.578125 C 8.328125 -11.316406 8.410156 -11.054688 8.453125 -10.796875 C 8.460938 -10.742188 8.460938 -10.601562 8.453125 -10.375 C 8.453125 -10.15625 8.441406 -9.90625 8.421875 -9.625 C 8.410156 -9.34375 8.394531 -9.066406 8.375 -8.796875 C 8.351562 -8.523438 8.335938 -8.3125 8.328125 -8.15625 C 8.296875 -7.851562 8.257812 -7.601562 8.21875 -7.40625 C 8.175781 -7.207031 8.144531 -7.054688 8.125 -6.953125 C 7.84375 -6.316406 7.378906 -5.8125 6.734375 -5.4375 C 6.492188 -5.332031 6.375 -5.265625 6.375 -5.234375 C 6.375 -5.222656 6.425781 -5.019531 6.53125 -4.625 C 6.632812 -4.238281 6.804688 -3.648438 7.046875 -2.859375 C 7.203125 -2.203125 7.332031 -1.679688 7.4375 -1.296875 C 7.539062 -0.921875 7.609375 -0.660156 7.640625 -0.515625 C 7.679688 -0.253906 7.65625 -0.0351562 7.5625 0.140625 C 7.351562 0.503906 7.023438 0.671875 6.578125 0.640625 C 6.453125 0.628906 6.320312 0.585938 6.1875 0.515625 C 6.0625 0.453125 5.960938 0.363281 5.890625 0.25 C 5.867188 0.175781 5.800781 -0.0820312 5.6875 -0.53125 C 5.582031 -0.976562 5.410156 -1.625 5.171875 -2.46875 L 4.46875 -5.046875 L 3.328125 -5.09375 L 2.953125 -0.0625 L 2.84375 0.125 C 2.632812 0.5 2.300781 0.671875 1.84375 0.640625 C 1.65625 0.617188 1.484375 0.550781 1.328125 0.4375 C 1.171875 0.320312 1.082031 0.160156 1.0625 -0.046875 C 1.039062 -0.128906 1.15625 -1.925781 1.40625 -5.4375 C 1.46875 -6.3125 1.523438 -7.148438 1.578125 -7.953125 C 1.628906 -8.765625 1.679688 -9.484375 1.734375 -10.109375 C 1.785156 -10.742188 1.828125 -11.253906 1.859375 -11.640625 C 1.890625 -12.035156 1.914062 -12.253906 1.9375 -12.296875 C 1.957031 -12.421875 2.035156 -12.550781 2.171875 -12.6875 C 2.316406 -12.820312 2.441406 -12.910156 2.546875 -12.953125 Z M 2.546875 -12.953125 "/></g></g></g></svg>